# xmcd CD database file
#
# Track frame offsets:
#	220
#	14952
#	32340
#	46610
#	62110
#	75682
#	90600
#	105247
#	117490
#	135417
#	156275
#	170065
#	188362
#	206970
#	221892
#	241410
#
# Disc length: 3421 seconds
#
# Revision: 4
# Processed by: cddbd v1.5.2PL0 Copyright (c) Steve Scherf et al.
# Submitted via: CDex 1.51
#
DISCID=d90d5b10
DTITLE=Johnny Winter - No Time To Live
DYEAR=1992
DGENRE=Blues Rock
TTITLE0=Ain't That Kindness
TTITLE1=Stranger
TTITLE2=Am I Here
TTITLE3=Self Destructive Blues
TTITLE4=Golden Days Of Rock and Roll
TTITLE5=Rock N Roll Hootchie Koo
TTITLE6=Guess I'll Go Away
TTITLE7=Rock N Roll People
TTITLE8=Lay Down Your Sorrows
TTITLE9=Raised On Rock
TTITLE10=Let The Music Play
TTITLE11=Prodigal Son
TTITLE12=Mind Over Matter
TTITLE13=Pick Up On My Mojo
TTITLE14=No Time To Live
TTITLE15=On The Limb
EXTD=YEAR: 1992
EXTT0=
EXTT1=
EXTT2=
EXTT3=
EXTT4=
EXTT5=
EXTT6=
EXTT7=
EXTT8=
EXTT9=
EXTT10=
EXTT11=
EXTT12=
EXTT13=
EXTT14=
EXTT15=
PLAYORDER=
